<svg width="20" height="20" viewBox="0 0 20 20" fill="none" xmlns="http://www.w3.org/2000/svg">
<path fill-rule="evenodd" clip-rule="evenodd" d="M8.74426 10.1086C8.66917 10.0336 8.62698 9.93181 8.62698 9.82566V8.2184C8.62698 7.86213 9.05765 7.68362 9.30969 7.93543L19.8443 18.4604C19.9194 18.5354 19.9616 18.6372 19.9616 18.7433V19.5988C19.9616 19.8202 19.7818 19.9995 19.5604 19.9988L1.00209 19.943L0.431764 19.941C0.211389 19.9403 0.0331421 19.7614 0.0331421 19.541V18.9791C0.0331421 17.0562 0.323335 15.1458 0.898641 13.3107C1.47345 11.4775 2.32818 9.74071 3.42633 8.16407C3.87256 7.5235 4.35803 6.91037 4.87988 6.32952C5.3375 5.82013 5.82247 5.33534 6.33231 4.87825C7.9299 3.44639 9.76324 2.29309 11.7462 1.47287C14.0463 0.521469 16.5033 0.0361849 18.9925 0.0361849H19.5616C19.7825 0.0361849 19.9616 0.215272 19.9616 0.436185V12.1345C19.9616 12.3554 19.7825 12.5344 19.5616 12.5344H16.8341C16.7281 12.5344 16.6264 12.4924 16.5514 12.4174L11.8257 7.69659C11.6615 7.53256 11.6701 7.26213 11.8587 7.12682C12.2277 6.86201 12.6238 6.66065 13.0555 6.50027C13.197 6.44769 13.3552 6.4862 13.462 6.59291L17.3573 10.4843C17.4305 10.5574 17.5298 10.5985 17.6333 10.5985C17.8489 10.5985 18.0237 10.4237 18.0237 10.2081V2.06415C18.0237 2.02885 17.994 2.00083 17.9587 2.00291C16.0749 2.11517 14.2236 2.53604 12.4798 3.25772C10.7359 3.97939 9.12494 4.99459 7.70827 6.23988C7.18976 6.69561 6.69873 7.18287 6.24049 7.69919C5.71753 8.28857 5.23565 8.91419 4.80352 9.57293C3.9259 10.9106 3.22957 12.36 2.74559 13.885C2.32707 15.2034 2.08378 16.5732 2.00149 17.9535C1.9994 17.9886 2.02726 18.0183 2.06243 18.0184L15.7346 18.0595C16.0916 18.0606 16.2711 17.6289 16.0185 17.3766L8.74426 10.1086Z" fill="white"/>
<path fill-rule="evenodd" clip-rule="evenodd" d="M0 6.01778C0 6.42233 0.548903 6.5817 0.780789 6.25021C2.27034 4.12084 4.12474 2.26736 6.25305 0.781284C6.58497 0.549521 6.4257 -0.000226912 6.02087 -0.000226912H0.4C0.179086 -0.000226912 0 0.178859 0 0.399773V6.01778Z" fill="white"/>
</svg>
